<?xml version="1.0" encoding="utf-8"?>
<!-- Generator: Adobe Illustrator 24.2.3, SVG Export Plug-In . SVG Version: 6.00 Build 0)  -->
<svg version="1.1" id="Layer_1" xmlns="http://www.w3.org/2000/svg" xmlns:xlink="http://www.w3.org/1999/xlink" x="0px" y="0px"
	 width="491.4px" height="368.5px" viewBox="0 0 491.4 368.5" style="enable-background:new 0 0 491.4 368.5;" xml:space="preserve"
	>
<style type="text/css">
	.st0{fill:#467CBF;}
	.st1{fill:#1EA74B;}
	.st2{fill:#F9BB00;}
	.st3{fill:#E83927;}
	.st4{fill:#C21920;}
</style>
<path class="st0" d="M33.5,368.5h78.2V178.7L0,94.9V335C0,353.5,15,368.5,33.5,368.5z"/>
<path class="st1" d="M379.7,368.5h78.2c18.5,0,33.5-15,33.5-33.5V94.9l-111.7,83.8V368.5z"/>
<path class="st2" d="M379.7,33.5v145.2l111.7-83.8V50.3c0-27.7-22.5-50.2-50.3-50.2c-10.9,0-21.4,3.5-30.1,10.1L379.7,33.5z"/>
<polygon class="st3" points="111.7,178.7 111.7,33.5 245.7,134 379.7,33.5 379.7,178.7 245.7,279.2 "/>
<path class="st4" d="M0,50.2v44.7l111.7,83.8V33.5L80.4,10.1C58.2-6.6,26.7-2.1,10.1,20.1C3.5,28.8,0,39.4,0,50.2z"/>
</svg>
